<svg xmlns="http://www.w3.org/2000/svg" width="25.775" height="25.122" viewBox="0 0 25.775 25.122">
  <path id="Path_569" data-name="Path 569" d="M1132.974,7693.621l1.277-1.277a1.374,1.374,0,0,1,1.95,0l11.183,11.177a1.376,1.376,0,0,1,0,1.951l-11.183,11.183a1.374,1.374,0,0,1-1.95,0l-1.277-1.277a1.381,1.381,0,0,1,.023-1.973l6.932-6.6H1123.4a1.377,1.377,0,0,1-1.38-1.381v-1.841a1.376,1.376,0,0,1,1.38-1.38h16.534l-6.932-6.6A1.371,1.371,0,0,1,1132.974,7693.621Z" transform="translate(-1122.015 -7691.938)" fill="#0f2a74"/>
</svg>
