<svg xmlns="http://www.w3.org/2000/svg" width="118.098" height="113.466" viewBox="0 0 118.098 113.466">
  <g id="Group_6575" data-name="Group 6575" transform="translate(-1397 -2625.13)">
    <path id="Path_877" data-name="Path 877" d="M1426.728,2730.654V2710.5l18.122-9.977v19.547Zm-24.027-30.339,18.326,10.181v19.955l-18.326-10.792Zm21.176-15.474L1442,2695.429l-18.325,10.18-18.122-10.18Zm25.249,8.144-23.823-13.846a2.447,2.447,0,0,0-2.851,0l-24.027,13.846a2.826,2.826,0,0,0-1.425,2.444V2721.7a3.107,3.107,0,0,0,1.425,2.444l24.027,14.049a.747.747,0,0,0,.611.2c.2,0,.611.2.814.2a3.765,3.765,0,0,0,1.426-.408l23.823-14.049a2.828,2.828,0,0,0,1.425-2.444v-26.266A3.105,3.105,0,0,0,1449.126,2692.985Z" fill="#fff"/>
    <path id="Path_878" data-name="Path 878" d="M1491.275,2730.247v-20.565l18.122-9.977v19.75Zm-24.027-30.542,18.326,10.18v20.362l-18.326-10.792Zm21.176-15.272,17.715,10.384-17.918,9.978-17.919-9.978Zm25.249,8.145-23.823-13.846a2.447,2.447,0,0,0-2.851,0l-24.027,13.846c-.2,0-.2.2-.407.2a2.627,2.627,0,0,0-1.018,2.24v26.267a3.1,3.1,0,0,0,1.425,2.443l24.027,14.05a2.7,2.7,0,0,0,2.851,0l23.823-14.05a2.825,2.825,0,0,0,1.425-2.443v-26.267A3.1,3.1,0,0,0,1513.673,2692.578Z" fill="#fff"/>
    <path id="Path_879" data-name="Path 879" d="M1458.9,2677.1v-20.362l18.122-9.977v19.751Zm-24.027-30.339,18.325,10.181V2677.1l-18.325-10.588Zm21.176-15.475,17.918,10.385-18.325,9.976-17.715-9.976Zm26.674,36.855v-26.267a3.1,3.1,0,0,0-1.425-2.443l-23.824-13.846a2.445,2.445,0,0,0-2.85,0l-24.027,13.846a2.822,2.822,0,0,0-1.425,2.443v26.267a3.1,3.1,0,0,0,1.425,2.443l24.027,14.05a2.7,2.7,0,0,0,2.85,0l23.824-14.05A2.824,2.824,0,0,0,1482.723,2668.144Z" fill="#fff"/>
  </g>
</svg>
