<svg xmlns="http://www.w3.org/2000/svg" width="148.217" height="154.781" viewBox="0 0 148.217 154.781">
  <g id="Group_6582" data-name="Group 6582" transform="translate(-1341.787 -4840)">
    <path id="Path_755" data-name="Path 755" d="M1439.846,4847.5s-79.251-27.4-71.424,22.5-26.417,69.467-26.417,69.467-2.935,11.741,12.719,27.4,47.942,42.071,79.251,18.589,64.575-39.136,52.834-45.984-15.654-26.418,0-41.094-31.309-18.589-31.309-28.373S1439.846,4847.5,1439.846,4847.5Z" fill="#eef4ff"/>
    <path id="Path_843" data-name="Path 843" d="M1387.492,4896a2,2,0,1,1-.766.152A1.987,1.987,0,0,1,1387.492,4896Z"/>
    <path id="Path_844" data-name="Path 844" d="M1459.492,4896a2,2,0,1,1-.766.152A1.987,1.987,0,0,1,1459.492,4896Z"/>
    <path id="Path_845" data-name="Path 845" d="M1387.492,4941a2,2,0,1,1-.766.152A1.987,1.987,0,0,1,1387.492,4941Z"/>
    <path id="Path_846" data-name="Path 846" d="M1459.492,4941a2,2,0,1,1-.766.152A1.987,1.987,0,0,1,1459.492,4941Z"/>
    <path id="Path_847" data-name="Path 847" d="M1431.826,4935.85l6.136-5.965h6.2a1.8,1.8,0,1,0,0-3.593h-6.926a1.8,1.8,0,0,0-1.249.512l-6.665,6.468a2.623,2.623,0,0,1-3.53.368,1.791,1.791,0,0,1-.494-1.266,2.821,2.821,0,0,1,.9-1.977l5.129-4.985a1.8,1.8,0,0,0-2.506-2.579l-1.8,1.8-5.749,5.588a2.637,2.637,0,0,1-3.53.368,1.792,1.792,0,0,1-.53-1.392,2.809,2.809,0,0,1,.9-1.977h0l5.839-5.677a1.8,1.8,0,0,0-2.506-2.578l-8.723,8.426a2.628,2.628,0,0,1-3.53.368,1.789,1.789,0,0,1-.521-1.311,2.813,2.813,0,0,1,.9-1.976l8.92-8.669a1.8,1.8,0,1,0-2.506-2.578l-12.684,12.361a2.641,2.641,0,0,1-3.531.368,1.8,1.8,0,0,1-.521-1.312,2.813,2.813,0,0,1,.9-1.976l12.72-12.361a1.8,1.8,0,1,0-2.507-2.578l-12.711,12.37a6.736,6.736,0,0,0-1.168,1.5h-8.911a1.8,1.8,0,0,0,0,3.593h8.085a5.318,5.318,0,0,0,1.59,3.342,5.577,5.577,0,0,0,3.926,1.536,6.631,6.631,0,0,0,4.294-1.626,5.255,5.255,0,0,0,1.239,1.887,5.581,5.581,0,0,0,3.926,1.536,6.546,6.546,0,0,0,3.243-.9,5.278,5.278,0,0,0,1.311,2.094,5.572,5.572,0,0,0,3.926,1.536,6.548,6.548,0,0,0,2.785-.647,5.281,5.281,0,0,0,1.374,2.245,5.58,5.58,0,0,0,3.953,1.573,6.654,6.654,0,0,0,4.608-1.914Z"/>
    <path id="Path_848" data-name="Path 848" d="M1392.956,4898.238a1.8,1.8,0,0,0,1.8,1.8H1421.7l7.95,7.456a2.894,2.894,0,0,1,.575,3.826,3.538,3.538,0,0,1-2.335,1.294,1.456,1.456,0,0,1-1.15-.413l-6.441-5.309a1.8,1.8,0,1,0-2.282,2.776l6.288,5.192a5.025,5.025,0,0,0,3.477,1.347h.314a7.078,7.078,0,0,0,4.833-2.542,6.445,6.445,0,0,0-.9-8.777l-8.471-7.95a1.8,1.8,0,0,0-1.186-.494h-27.623A1.8,1.8,0,0,0,1392.956,4898.238Z"/>
    <path id="Path_849" data-name="Path 849" d="M1430.685,4898.238a1.8,1.8,0,0,0,1.8,1.8h19.763a1.8,1.8,0,0,0,0-3.594h-19.763A1.8,1.8,0,0,0,1430.685,4898.238Z"/>
    <path id="Path_850" data-name="Path 850" d="M1475.6,4867.695a1.8,1.8,0,1,1,1.8-1.8A1.8,1.8,0,0,1,1475.6,4867.695Zm0-7.187a5.39,5.39,0,0,0-5.075,3.594h-41.637a1.8,1.8,0,0,0-1.8,1.8v21.56a1.8,1.8,0,1,0,3.593,0v-19.763h39.841a5.39,5.39,0,1,0,5.075-7.187Z"/>
    <path id="Path_851" data-name="Path 851" d="M1455.838,4878.475a1.8,1.8,0,1,1,1.8-1.8A1.8,1.8,0,0,1,1455.838,4878.475Zm0-7.186a5.387,5.387,0,0,0-5.075,3.593h-11.094a1.8,1.8,0,0,0-1.8,1.8v14.373a1.8,1.8,0,1,0,3.593,0v-12.576h9.3a5.39,5.39,0,1,0,5.075-7.186Z"/>
    <path id="Path_852" data-name="Path 852" d="M1371.4,4864.1a1.8,1.8,0,1,1-1.8,1.8,1.8,1.8,0,0,1,1.8-1.8Zm0,7.186a5.39,5.39,0,0,0,5.076-3.593h39.84v19.763a1.8,1.8,0,0,0,3.594,0V4865.9a1.8,1.8,0,0,0-1.8-1.8h-41.637a5.39,5.39,0,1,0-5.076,7.186Z"/>
    <path id="Path_853" data-name="Path 853" d="M1391.159,4878.475a1.8,1.8,0,1,1,1.8-1.8A1.8,1.8,0,0,1,1391.159,4878.475Zm16.17,14.373a1.8,1.8,0,0,0,1.8-1.8v-14.373a1.8,1.8,0,0,0-1.8-1.8h-11.094a5.39,5.39,0,1,0,0,3.594h9.3v12.576A1.8,1.8,0,0,0,1407.329,4892.848Z"/>
    <path id="Path_854" data-name="Path 854" d="M1373.193,4891.051a1.8,1.8,0,1,1,1.8-1.8A1.8,1.8,0,0,1,1373.193,4891.051Zm27.848,19.763a1.8,1.8,0,0,0-1.8-1.8H1374.99V4894.33a5.39,5.39,0,1,0-3.594,0v16.484a1.8,1.8,0,0,0,1.8,1.8h26.051A1.8,1.8,0,0,0,1401.041,4910.814Z"/>
    <path id="Path_855" data-name="Path 855" d="M1473.805,4887.458a1.8,1.8,0,1,1-1.8,1.8A1.8,1.8,0,0,1,1473.805,4887.458Zm-32.34,21.56a1.8,1.8,0,0,0,0,3.593h32.34a1.8,1.8,0,0,0,1.8-1.8V4894.33a5.39,5.39,0,1,0-3.593,0v14.688Z"/>
    <path id="Path_856" data-name="Path 856" d="M1475.6,4971.9a1.8,1.8,0,1,1,1.8-1.8A1.8,1.8,0,0,1,1475.6,4971.9Zm0-7.187a5.389,5.389,0,0,0-5.075,3.594h-39.841v-25.153a1.8,1.8,0,1,0-3.593,0v26.95a1.8,1.8,0,0,0,1.8,1.8h41.637a5.39,5.39,0,1,0,5.075-7.187Z"/>
    <path id="Path_857" data-name="Path 857" d="M1455.838,4957.527a1.8,1.8,0,1,1-1.8,1.8A1.8,1.8,0,0,1,1455.838,4957.527Zm-16.169,3.593h11.094a5.39,5.39,0,1,0,0-3.593h-9.3v-19.763a1.8,1.8,0,1,0-3.593,0v21.559A1.8,1.8,0,0,0,1439.669,4961.12Z"/>
    <path id="Path_858" data-name="Path 858" d="M1371.4,4968.307a1.8,1.8,0,1,1-1.8,1.8,1.8,1.8,0,0,1,1.8-1.8Zm0,7.186a5.391,5.391,0,0,0,5.076-3.593h41.637a1.8,1.8,0,0,0,1.8-1.8v-26.95a1.8,1.8,0,0,0-3.594,0v25.153h-39.84a5.39,5.39,0,1,0-5.076,7.186Z"/>
    <path id="Path_859" data-name="Path 859" d="M1391.159,4957.527a1.8,1.8,0,1,1-1.8,1.8A1.8,1.8,0,0,1,1391.159,4957.527Zm0,7.186a5.391,5.391,0,0,0,5.076-3.593h11.094a1.8,1.8,0,0,0,1.8-1.8v-21.559a1.8,1.8,0,1,0-3.594,0v19.763h-9.3a5.39,5.39,0,1,0-5.076,7.186Z"/>
    <path id="Path_860" data-name="Path 860" d="M1373.193,4948.543a1.8,1.8,0,1,1,1.8-1.8A1.8,1.8,0,0,1,1373.193,4948.543Zm7.186-23.355a1.8,1.8,0,1,0,0-3.594h-7.186a1.8,1.8,0,0,0-1.8,1.8v18.28a5.39,5.39,0,1,0,3.594,0v-16.483Z"/>
    <path id="Path_861" data-name="Path 861" d="M1473.805,4944.95a1.8,1.8,0,1,1-1.8,1.8A1.8,1.8,0,0,1,1473.805,4944.95Zm-5.39,1.8a5.39,5.39,0,1,0,7.186-5.076v-18.28a1.8,1.8,0,0,0-1.8-1.8h-14.373a1.8,1.8,0,0,0-1.285.539l-3.962,4.034h-2.838a1.8,1.8,0,1,0,0,3.593h3.593a1.8,1.8,0,0,0,1.284-.539l3.962-4.033h11.822v16.483a5.39,5.39,0,0,0-3.593,5.076Z"/>
  </g>
</svg>
