<svg xmlns="http://www.w3.org/2000/svg" width="100.429" height="100.43" viewBox="0 0 100.429 100.43">
  <g id="Group_6574" data-name="Group 6574" transform="translate(-910 -2628.282)">
    <path id="Path_863" data-name="Path 863" d="M962.606,2628.282h9.564v4.782h-4.782v4.782h-9.565V2652.2h-9.564v-4.783h4.782v-14.348h9.565Z" fill="#fff"/>
    <path id="Path_864" data-name="Path 864" d="M938.693,2656.976H914.782v-23.912h23.911ZM910,2628.282v33.477h33.477v-33.477Z" fill="#fff"/>
    <path id="Path_865" data-name="Path 865" d="M1005.646,2656.976h-23.91v-23.912h23.911v23.912Zm-28.692-28.694v33.477h33.475v-33.477Z" fill="#fff"/>
    <rect id="Rectangle_97" data-name="Rectangle 97" width="14.347" height="14.347" transform="translate(919.564 2637.847)" fill="#fff"/>
    <rect id="Rectangle_98" data-name="Rectangle 98" width="14.347" height="14.347" transform="translate(986.516 2637.847)" fill="#fff"/>
    <rect id="Rectangle_99" data-name="Rectangle 99" width="4.782" height="4.782" transform="translate(962.606 2642.63)" fill="#fff"/>
    <path id="Path_866" data-name="Path 866" d="M967.388,2647.412h4.782v19.129h-4.782v-9.565h-4.782v4.784h-4.784V2652.2h9.565Z" fill="#fff"/>
    <path id="Path_867" data-name="Path 867" d="M948.259,2656.976h4.782v4.784h4.782v4.782h-4.782v9.564h4.782v-4.782h4.784v-4.782h4.782v14.348h-9.565v4.782h-4.782v-4.782h-4.782v-9.565h-9.565v-4.782h9.565Z" fill="#fff"/>
    <rect id="Rectangle_100" data-name="Rectangle 100" width="9.564" height="4.784" transform="translate(919.564 2666.541)" fill="#fff"/>
    <path id="Path_868" data-name="Path 868" d="M972.17,2666.541h9.565v4.782h-4.782v4.782H972.17Z" fill="#fff"/>
    <rect id="Rectangle_101" data-name="Rectangle 101" width="4.784" height="4.784" transform="translate(986.516 2666.541)" fill="#fff"/>
    <path id="Path_869" data-name="Path 869" d="M910,2671.323h9.564v4.782h4.784v4.783h-4.784v4.782h-4.782v-9.565H910Z" fill="#fff"/>
    <path id="Path_870" data-name="Path 870" d="M929.129,2671.323h9.564v4.782h-4.782v4.783h4.782v4.782h-9.564Z" fill="#fff"/>
    <path id="Path_871" data-name="Path 871" d="M991.3,2671.323h4.784v4.782h4.782v14.347h-4.782v-4.782h-9.567v4.782h-4.78v-9.564H991.3Z" fill="#fff"/>
    <rect id="Rectangle_102" data-name="Rectangle 102" width="4.782" height="4.783" transform="translate(938.693 2676.105)" fill="#fff"/>
    <rect id="Rectangle_103" data-name="Rectangle 103" width="4.784" height="4.783" transform="translate(1005.646 2676.105)" fill="#fff"/>
    <path id="Path_872" data-name="Path 872" d="M943.477,2680.889h4.782v9.564h-9.565v-4.782h4.784Z" fill="#fff"/>
    <rect id="Rectangle_104" data-name="Rectangle 104" width="4.784" height="4.782" transform="translate(967.388 2680.889)" fill="#fff"/>
    <rect id="Rectangle_105" data-name="Rectangle 105" width="4.782" height="4.783" transform="translate(910 2685.671)" fill="#fff"/>
    <rect id="Rectangle_106" data-name="Rectangle 106" width="4.782" height="4.783" transform="translate(919.564 2685.671)" fill="#fff"/>
    <path id="Path_873" data-name="Path 873" d="M957.823,2685.671h9.565v4.782h-4.782v9.565h-4.784v9.564h-4.782v-9.564h-4.782v-9.565h4.782v4.782h4.782Z" fill="#fff"/>
    <rect id="Rectangle_107" data-name="Rectangle 107" width="4.784" height="4.783" transform="translate(972.17 2685.671)" fill="#fff"/>
    <rect id="Rectangle_108" data-name="Rectangle 108" width="4.784" height="4.783" transform="translate(1005.646 2685.671)" fill="#fff"/>
    <rect id="Rectangle_109" data-name="Rectangle 109" width="4.784" height="9.563" transform="translate(967.388 2690.453)" fill="#fff"/>
    <rect id="Rectangle_110" data-name="Rectangle 110" width="4.784" height="9.563" transform="translate(991.3 2690.453)" fill="#fff"/>
    <rect id="Rectangle_111" data-name="Rectangle 111" width="4.782" height="4.781" transform="translate(1000.865 2690.453)" fill="#fff"/>
    <path id="Path_874" data-name="Path 874" d="M981.736,2695.234h4.78v4.784H991.3v9.563h14.346v4.782H986.516v9.564h-4.78v-9.564h-4.782v4.783H972.17v4.781h4.784v4.784H953.041v-4.784h14.347v-9.564h4.782v-14.346h9.565Z" fill="#fff"/>
    <path id="Path_875" data-name="Path 875" d="M938.693,2723.928H914.782v-23.909h23.911ZM910,2695.234v33.478h33.477v-33.478Z" fill="#fff"/>
    <rect id="Rectangle_112" data-name="Rectangle 112" width="4.782" height="4.781" transform="translate(962.606 2700.019)" fill="#fff"/>
    <rect id="Rectangle_113" data-name="Rectangle 113" width="9.562" height="4.781" transform="translate(996.083 2700.019)" fill="#fff"/>
    <rect id="Rectangle_114" data-name="Rectangle 114" width="14.347" height="14.348" transform="translate(919.564 2704.799)" fill="#fff"/>
    <rect id="Rectangle_115" data-name="Rectangle 115" width="4.784" height="4.783" transform="translate(1005.646 2704.799)" fill="#fff"/>
    <path id="Path_876" data-name="Path 876" d="M948.259,2709.582h4.782v4.782h4.782v4.783h-9.564Z" fill="#fff"/>
    <rect id="Rectangle_116" data-name="Rectangle 116" width="9.564" height="4.782" transform="translate(957.823 2709.582)" fill="#fff"/>
    <rect id="Rectangle_117" data-name="Rectangle 117" width="4.782" height="4.782" transform="translate(996.083 2719.147)" fill="#fff"/>
    <rect id="Rectangle_118" data-name="Rectangle 118" width="4.784" height="4.782" transform="translate(1005.646 2719.147)" fill="#fff"/>
    <rect id="Rectangle_119" data-name="Rectangle 119" width="4.784" height="4.784" transform="translate(986.516 2723.928)" fill="#fff"/>
  </g>
</svg>
