<svg xmlns="http://www.w3.org/2000/svg" width="120.955" height="120.966" viewBox="0 0 120.955 120.966">
  <path id="Path_862" data-name="Path 862" d="M470.98,2688a4.321,4.321,0,1,1,4.32-4.32,4.321,4.321,0,0,1-4.32,4.32Zm-21.6-12.961a4.32,4.32,0,1,1-4.32-4.32,4.32,4.32,0,0,1,4.32,4.32Zm-28.082-2.16a4.32,4.32,0,1,1-4.32-4.32A4.32,4.32,0,0,1,421.3,2672.875Zm32.4-28.082a4.32,4.32,0,1,1-4.32-4.319,4.32,4.32,0,0,1,4.32,4.319Zm47.523,15.122a4.321,4.321,0,1,1,4.321-4.321,4.321,4.321,0,0,1-4.321,4.321ZM496.9,2698.8v4.32a25.835,25.835,0,0,0,7.714-1.172,6.48,6.48,0,1,1-11.83,4.954l-4.184,1.079a10.771,10.771,0,0,0,3.978,5.94,10.8,10.8,0,0,1-14.527-1.436l-3.217,2.883a15.108,15.108,0,0,0,2.506,2.233,8.651,8.651,0,0,1-4.2,2.522v-9.628l18.808-18.808a2.162,2.162,0,0,0,.633-1.528v-9.906l10.168-10.167a2.162,2.162,0,0,0,.633-1.528v-4.594a8.64,8.64,0,1,0-4.321,0v3.7l-6.48,6.481v-5.586a2.163,2.163,0,0,0-.633-1.528l-8.64-8.64a2.162,2.162,0,0,0-1.528-.633h-3.425l-14.488-14.488a2.158,2.158,0,0,0-1.528-.632h-4.594a8.64,8.64,0,1,0,0,4.32h3.7l10.8,10.8H429.937a2.164,2.164,0,0,0-1.528.633l-7.047,7.048a8.649,8.649,0,1,0,3.055,3.054l6.415-6.414h37.093l-10.8,10.8h-3.7a8.641,8.641,0,1,0,0,4.32h4.594a2.158,2.158,0,0,0,1.527-.632l14.489-14.488h6.851l7.375,7.375v19.812l-10.8,10.8-4.32-4.321v-3.7a8.64,8.64,0,1,0-4.321,0v4.594a2.16,2.16,0,0,0,.633,1.527l4.953,4.953-4.953,4.953a2.161,2.161,0,0,0-.633,1.528v10.527a8.655,8.655,0,0,1-6.192-10.59,2.159,2.159,0,0,0-1.43-2.61,10.807,10.807,0,0,1-5.7-16.258l-3.6-2.392a15.06,15.06,0,0,0-2.521,8.362,15.33,15.33,0,0,0,.2,2.466,12.962,12.962,0,0,1-15.752-20.366l-3.025-3.085a17.144,17.144,0,0,0-5.169,11.6,12.981,12.981,0,0,1-11.332-1.3,2.159,2.159,0,0,0-1.542-.309,12.961,12.961,0,1,1,1.44-25.189l1.231-4.141a17.282,17.282,0,0,0-11.381.536,12.96,12.96,0,0,1,23.564-6.5l3.543-2.472a17.314,17.314,0,0,0-9.305-6.7,13.026,13.026,0,0,1,10.245-5.026,13.274,13.274,0,0,1,3.8.578,2.16,2.16,0,0,0,2.461-.927,12.893,12.893,0,0,1,11.018-6.131,13.036,13.036,0,0,1,12.424,9.256l4.141-1.232a17.224,17.224,0,0,0-5.708-8.479,12.964,12.964,0,0,1,18.847,7.552l4.141-1.233a17.065,17.065,0,0,0-3.09-5.856,27.811,27.811,0,0,1,17.471,6.491c-.234-.009-.467-.019-.7-.019a21.7,21.7,0,0,0-4.8.535l.956,4.212a17.285,17.285,0,0,1,13.442,31.225l2.4,3.59a21.616,21.616,0,0,0,7.292-8.244A21.61,21.61,0,0,1,496.9,2698.8Zm-13.8,49.683h-4.146l-8.925-23.8c.313.023.628.039.948.039a12.946,12.946,0,0,0,3.991-.637Z" transform="translate(-397.548 -2627.514)" fill="#fff"/>
</svg>
