<svg xmlns="http://www.w3.org/2000/svg" width="128" height="128" viewBox="0 0 128 128">
  <g id="Group_6561" data-name="Group 6561" transform="translate(-481 -1312)">
    <path id="Path_35" data-name="Path 35" d="M545,1312q3.144,0,6.273.308t6.213.921q3.084.615,6.092,1.527t5.914,2.116q2.9,1.2,5.677,2.685t5.387,3.229q2.614,1.746,5.045,3.741t4.654,4.218q2.223,2.225,4.218,4.654t3.741,5.044q1.748,2.616,3.229,5.388t2.685,5.677q1.2,2.905,2.116,5.914t1.526,6.092q.613,3.084.922,6.213T609,1376q0,3.144-.308,6.273t-.922,6.213q-.613,3.084-1.526,6.092t-2.116,5.914q-1.2,2.9-2.685,5.677t-3.229,5.388q-1.747,2.613-3.741,5.044t-4.218,4.654q-2.223,2.223-4.654,4.218t-5.045,3.741q-2.613,1.746-5.387,3.229t-5.677,2.685q-2.906,1.2-5.914,2.116t-6.092,1.526q-3.084.613-6.213.922T545,1440q-3.144,0-6.273-.308t-6.213-.922q-3.084-.614-6.092-1.526t-5.914-2.116q-2.9-1.2-5.677-2.685t-5.388-3.229q-2.613-1.748-5.044-3.741t-4.654-4.218q-2.223-2.225-4.218-4.654t-3.741-5.044q-1.748-2.616-3.229-5.388t-2.685-5.677q-1.2-2.905-2.116-5.914t-1.526-6.092q-.613-3.084-.922-6.213T481,1376q0-3.144.308-6.273t.922-6.213q.613-3.084,1.526-6.092t2.116-5.914q1.2-2.9,2.685-5.677t3.229-5.388q1.746-2.613,3.741-5.044t4.218-4.654q2.223-2.223,4.654-4.218t5.044-3.741q2.615-1.748,5.388-3.229t5.677-2.685q2.906-1.2,5.914-2.116t6.092-1.527q3.084-.612,6.213-.921T545,1312Z" fill="#fff"/>
    <path id="Path_36" data-name="Path 36" d="M559.394,1373.39a3,3,0,0,1,0,5.22l-20.915,11.852a3,3,0,0,1-4.479-2.61v-23.7a3,3,0,0,1,4.479-2.61Z" fill="#3671e9"/>
  </g>
</svg>
