<svg xmlns="http://www.w3.org/2000/svg" width="148.217" height="154.781" viewBox="0 0 148.217 154.781">
  <g id="Group_6576" data-name="Group 6576" transform="translate(-886.218 -4025.486)">
    <path id="Path_734" data-name="Path 734" d="M984.277,4032.99s-79.251-27.4-71.424,22.5-26.417,69.466-26.417,69.466-2.935,11.742,12.719,27.4,47.942,42.071,79.251,18.589,64.575-39.136,52.834-45.985-15.654-26.417,0-41.093-31.309-18.589-31.309-28.373S984.277,4032.99,984.277,4032.99Z" fill="#eef4ff"/>
    <path id="Path_735" data-name="Path 735" d="M995.479,4086.6a3.745,3.745,0,0,0-1.761,4.982,40.32,40.32,0,0,1,3.746,17.157,41.207,41.207,0,1,1-41.207-41.207,40.324,40.324,0,0,1,17.157,3.746,3.755,3.755,0,1,0,3.147-6.818,47.892,47.892,0,0,0-20.3-4.421,48.7,48.7,0,1,0,48.7,48.7,47.88,47.88,0,0,0-4.5-20.3,3.744,3.744,0,0,0-4.982-1.835Zm4.2-15.322h-2.211a3.746,3.746,0,0,1-3.746-3.746v-2.211l-3.746,3.746v5.957h5.957Zm11.688-1.087-11.239,11.239a3.747,3.747,0,0,1-2.66,1.086h-9.7L958.917,4111.4a3.761,3.761,0,1,1-5.32-5.319l28.883-28.845v-9.7a3.746,3.746,0,0,1,1.086-2.66l11.239-11.238a3.77,3.77,0,0,1,6.406,2.659v7.493h7.492a3.769,3.769,0,0,1,2.66,6.405Zm-40.121,12.325a3.748,3.748,0,0,0-1.948-4.908,33.715,33.715,0,1,0,17.869,17.869,3.751,3.751,0,0,0-6.893,2.96,26.223,26.223,0,1,1-13.936-13.935A3.747,3.747,0,0,0,971.242,4082.519Zm-26.223,26.223a11.245,11.245,0,0,0,22.477.749,3.755,3.755,0,0,1,7.492.525,18.731,18.731,0,1,1-20.005-20.005,3.755,3.755,0,1,1,.525,7.492,11.239,11.239,0,0,0-10.489,11.239Z"/>
  </g>
</svg>
