<svg xmlns="http://www.w3.org/2000/svg" width="149.545" height="156.285" viewBox="0 0 149.545 156.285">
  <g id="Group_6577" data-name="Group 6577" transform="translate(-1333.853 -4296.738)">
    <path id="Path_744" data-name="Path 744" d="M1369.319,4316.044s-65.228,52.692-18.764,72.5,44.912,59.215,44.912,59.215,8.4,8.711,29.973,3.73,61.083-18.362,57.761-57.357,1.03-75.5-11-69.174-30.7-.724-34.849-21.776-32.356,16.7-40.654,11.515S1369.319,4316.044,1369.319,4316.044Z" fill="#eef4ff"/>
    <path id="Path_804" data-name="Path 804" d="M1437.29,4392.04l-1.988-1.906a33.31,33.31,0,0,0,5.038-4.693l1.968,1.885Zm-21.792,1.148a29.431,29.431,0,1,1,29.431-29.431,29.431,29.431,0,0,1-29.431,29.431Zm34.24-7.978a3.591,3.591,0,0,0-4.805-.31l-2.382-2.282a33.013,33.013,0,1,0-10.289,9.546l2.425,2.322-.383.359a3.543,3.543,0,0,0-.124,5.044l21.348,22.15a1.784,1.784,0,0,0,2.569-2.476l-21.35-22.118,10.425-9.757,29.922,30.823a1.784,1.784,0,0,0,2.559-2.485Z"/>
    <path id="Path_805" data-name="Path 805" d="M1449.019,4399.954a1.782,1.782,0,0,0,0,2.522l5.351,5.351a1.818,1.818,0,0,0,2.522,0,1.782,1.782,0,0,0,0-2.522l-5.351-5.351a1.782,1.782,0,0,0-2.522,0Z"/>
    <path id="Path_806" data-name="Path 806" d="M1463.212,4354.838a2.676,2.676,0,1,1-2.676-2.675,2.676,2.676,0,0,1,2.676,2.675Zm-8.919,0a6.243,6.243,0,1,0,6.243-6.242,6.244,6.244,0,0,0-6.243,6.242Z"/>
    <path id="Path_807" data-name="Path 807" d="M1397.215,4316.489a1.784,1.784,0,1,1-1.784,1.783,1.784,1.784,0,0,1,1.784-1.783Zm0,7.135a5.352,5.352,0,1,0-5.351-5.352,5.352,5.352,0,0,0,5.351,5.352Z"/>
    <path id="Path_808" data-name="Path 808" d="M1455.185,4325.407a1.784,1.784,0,1,1-1.783,1.784,1.784,1.784,0,0,1,1.783-1.784Zm0,7.135a5.351,5.351,0,1,0-5.351-5.351,5.351,5.351,0,0,0,5.351,5.351Z"/>
    <path id="Path_809" data-name="Path 809" d="M1371.351,4355.73a1.784,1.784,0,1,1-1.784,1.784A1.784,1.784,0,0,1,1371.351,4355.73Zm0,7.135a5.351,5.351,0,1,0-5.351-5.351,5.351,5.351,0,0,0,5.351,5.351Z"/>
    <path id="Path_810" data-name="Path 810" d="M1372.243,4423.511a2.676,2.676,0,1,1,2.675-2.676,2.676,2.676,0,0,1-2.675,2.676Zm0-8.918a6.243,6.243,0,1,0,6.243,6.242,6.243,6.243,0,0,0-6.243-6.242Z"/>
    <path id="Path_811" data-name="Path 811" d="M1407.917,4423.511a1.784,1.784,0,1,1,1.784-1.783,1.784,1.784,0,0,1-1.784,1.783Zm0-7.135a5.352,5.352,0,1,0,5.351,5.352,5.352,5.352,0,0,0-5.351-5.352Z"/>
    <path id="Path_812" data-name="Path 812" d="M1426.646,4320.056h1.783v1.785a1.784,1.784,0,1,0,3.567,0v-1.785h1.785a1.784,1.784,0,0,0,0-3.567H1432v-1.783a1.784,1.784,0,1,0-3.567,0v1.783h-1.783a1.784,1.784,0,1,0,0,3.567Z"/>
    <path id="Path_813" data-name="Path 813" d="M1478.373,4371.783h-1.784V4370a1.784,1.784,0,1,0-3.568,0v1.783h-1.782a1.783,1.783,0,1,0,0,3.567h1.782v1.785a1.784,1.784,0,0,0,3.568,0v-1.785h1.784a1.783,1.783,0,1,0,0-3.567Z"/>
    <path id="Path_814" data-name="Path 814" d="M1394.539,4403.89h-1.784v-1.783a1.784,1.784,0,0,0-3.568,0v1.783H1387.4a1.783,1.783,0,0,0,0,3.567h1.783v1.785a1.784,1.784,0,0,0,3.568,0v-1.785h1.784a1.783,1.783,0,1,0,0-3.567Z"/>
    <path id="Path_815" data-name="Path 815" d="M1367.784,4328.974h.891v.893a1.783,1.783,0,0,0,3.567,0v-.893h.893a1.784,1.784,0,0,0,0-3.568h-.893v-.89a1.783,1.783,0,1,0-3.567,0v.89h-.891a1.784,1.784,0,0,0,0,3.568Z"/>
    <path id="Path_816" data-name="Path 816" d="M1427.538,4409.24h-.893v-.89a1.784,1.784,0,1,0-3.567,0v.89h-.891a1.784,1.784,0,1,0,0,3.568h.891v.893a1.784,1.784,0,0,0,3.567,0v-.893h.893a1.784,1.784,0,1,0,0-3.568Z"/>
    <path id="Path_817" data-name="Path 817" d="M1367.784,4389.62h.891v.893a1.783,1.783,0,0,0,3.567,0v-.893h.893a1.784,1.784,0,0,0,0-3.568h-.893v-.89a1.783,1.783,0,1,0-3.567,0v.89h-.891a1.784,1.784,0,0,0,0,3.568Z"/>
    <path id="Path_818" data-name="Path 818" d="M1473.022,4336.108h.891V4337a1.784,1.784,0,1,0,3.568,0v-.893h.892a1.783,1.783,0,1,0,0-3.567h-.892v-.891a1.784,1.784,0,0,0-3.568,0v.891h-.891a1.783,1.783,0,0,0,0,3.567Z"/>
    <path id="Path_819" data-name="Path 819" d="M1415.5,4358.406a1.783,1.783,0,0,0,1.783-1.784v-3.567a1.784,1.784,0,1,0-3.567,0v3.567a1.785,1.785,0,0,0,1.784,1.784Z"/>
    <path id="Path_820" data-name="Path 820" d="M1415.5,4376.243a1.784,1.784,0,0,0,1.783-1.784v-3.567a1.784,1.784,0,1,0-3.567,0v3.567a1.785,1.785,0,0,0,1.784,1.784Z"/>
    <path id="Path_821" data-name="Path 821" d="M1427.984,4363.757a1.784,1.784,0,0,0-1.784-1.784h-3.567a1.784,1.784,0,1,0,0,3.568h3.567a1.784,1.784,0,0,0,1.784-1.784Z"/>
    <path id="Path_822" data-name="Path 822" d="M1408.363,4361.973H1404.8a1.784,1.784,0,1,0,0,3.568h3.567a1.784,1.784,0,1,0,0-3.568Z"/>
    <path id="Path_823" data-name="Path 823" d="M1415.5,4338.785a1.787,1.787,0,0,1,1.261.522,1.784,1.784,0,0,1,0,2.523,1.778,1.778,0,0,1-1.944.386,1.774,1.774,0,0,1-.579-.386,1.787,1.787,0,0,1,0-2.523,1.783,1.783,0,0,1,.579-.386A1.764,1.764,0,0,1,1415.5,4338.785Z"/>
    <path id="Path_824" data-name="Path 824" d="M1422.594,4339.892a1.763,1.763,0,0,1,.683.136,1.781,1.781,0,0,1,.579.386,1.787,1.787,0,0,1,0,2.523,1.781,1.781,0,0,1-.579.386,1.783,1.783,0,1,1-.683-3.431Z"/>
    <path id="Path_825" data-name="Path 825" d="M1429.064,4343.165a1.757,1.757,0,0,1,.682.135,1.784,1.784,0,0,1,0,3.3,1.784,1.784,0,0,1-1.365,0,1.8,1.8,0,0,1-.579-.387,1.786,1.786,0,0,1,0-2.522,1.8,1.8,0,0,1,.579-.387A1.762,1.762,0,0,1,1429.064,4343.165Z"/>
    <path id="Path_826" data-name="Path 826" d="M1434.211,4348.276a1.788,1.788,0,0,1,1.261.522,1.783,1.783,0,0,1,.387,1.944,1.791,1.791,0,0,1-.965.966,1.781,1.781,0,0,1-1.944-.387,1.783,1.783,0,0,1-.523-1.261,1.786,1.786,0,0,1,.523-1.262,1.788,1.788,0,0,1,1.261-.522Z"/>
    <path id="Path_827" data-name="Path 827" d="M1437.557,4354.724a1.771,1.771,0,0,1,1.261.522,1.785,1.785,0,0,1,0,2.523,1.773,1.773,0,0,1-.578.386,1.787,1.787,0,0,1-1.944-.386,1.784,1.784,0,0,1-.387-.58,1.782,1.782,0,0,1,1.648-2.465Z"/>
    <path id="Path_828" data-name="Path 828" d="M1438.686,4361.929a1.771,1.771,0,0,1,1.261.522,1.758,1.758,0,0,1,.387.579,1.784,1.784,0,0,1-.387,1.944,1.785,1.785,0,0,1-2.522,0,1.783,1.783,0,0,1-.387-1.944,1.758,1.758,0,0,1,.387-.579,1.771,1.771,0,0,1,1.261-.522Z"/>
    <path id="Path_829" data-name="Path 829" d="M1437.557,4369.136a1.783,1.783,0,0,1,1.648,2.466,1.785,1.785,0,0,1-2.909.579,1.788,1.788,0,0,1-.387-1.944,1.794,1.794,0,0,1,.387-.579,1.787,1.787,0,0,1,1.261-.522Z"/>
    <path id="Path_830" data-name="Path 830" d="M1434.262,4375.634a1.793,1.793,0,0,1,1.262.522,1.785,1.785,0,0,1,.386.579,1.784,1.784,0,1,1-3.3,0,1.783,1.783,0,0,1,.386-.579,1.792,1.792,0,0,1,1.261-.522Z"/>
    <path id="Path_831" data-name="Path 831" d="M1429.137,4380.755a1.792,1.792,0,0,1,1.261.522,1.783,1.783,0,0,1,.387,1.944,1.8,1.8,0,0,1-.387.579,1.783,1.783,0,1,1-1.261-3.045Z"/>
    <path id="Path_832" data-name="Path 832" d="M1422.681,4384.039a1.781,1.781,0,1,1-1.648,1.1,1.783,1.783,0,0,1,.387-.579,1.787,1.787,0,0,1,1.261-.522Z"/>
    <path id="Path_833" data-name="Path 833" d="M1415.515,4385.162a1.771,1.771,0,0,1,1.261.522,1.785,1.785,0,0,1,0,2.523,1.773,1.773,0,0,1-.578.386,1.787,1.787,0,0,1-1.944-.386,1.787,1.787,0,0,1-.387-.58,1.782,1.782,0,0,1,1.648-2.465Z"/>
    <path id="Path_834" data-name="Path 834" d="M1408.354,4384.028a1.792,1.792,0,0,1,1.261.522,1.79,1.79,0,0,1,.522,1.262,1.784,1.784,0,1,1-3.431-.683,1.777,1.777,0,0,1,.386-.579,1.792,1.792,0,0,1,1.262-.522Z"/>
    <path id="Path_835" data-name="Path 835" d="M1401.892,4380.755a1.792,1.792,0,0,1,1.261.522,1.783,1.783,0,0,1,.387,1.944,1.8,1.8,0,0,1-.387.579,1.785,1.785,0,0,1-1.944.386,1.782,1.782,0,0,1,0-3.295A1.755,1.755,0,0,1,1401.892,4380.755Z"/>
    <path id="Path_836" data-name="Path 836" d="M1396.757,4375.6a1.783,1.783,0,0,1,.682,3.431,1.778,1.778,0,0,1-1.365,0,1.787,1.787,0,0,1-.579-.386,1.795,1.795,0,0,1-.522-1.262,1.79,1.79,0,0,1,.522-1.261,1.8,1.8,0,0,1,.579-.387A1.78,1.78,0,0,1,1396.757,4375.6Z"/>
    <path id="Path_837" data-name="Path 837" d="M1393.452,4369.179a1.776,1.776,0,0,1,1.261.522,1.784,1.784,0,0,1,.386,1.944,1.777,1.777,0,0,1-.386.579,1.787,1.787,0,0,1-2.523,0,1.779,1.779,0,0,1-.386-.579,1.781,1.781,0,0,1,1.648-2.466Z"/>
    <path id="Path_838" data-name="Path 838" d="M1392.31,4362.018a1.783,1.783,0,1,1-.683,3.431,1.814,1.814,0,0,1-.579-.386,1.787,1.787,0,0,1,0-2.523,1.8,1.8,0,0,1,.579-.387A1.781,1.781,0,0,1,1392.31,4362.018Z"/>
    <path id="Path_839" data-name="Path 839" d="M1393.452,4354.854a1.758,1.758,0,0,1,.682.135,1.773,1.773,0,0,1,.965.966,1.786,1.786,0,0,1-.386,1.943,1.783,1.783,0,0,1-2.523,0,1.788,1.788,0,0,1,0-2.523,1.778,1.778,0,0,1,.579-.386A1.758,1.758,0,0,1,1393.452,4354.854Z"/>
    <path id="Path_840" data-name="Path 840" d="M1396.7,4348.39a1.78,1.78,0,0,1,.683.135,1.8,1.8,0,0,1,.579.387,1.788,1.788,0,0,1,0,2.523,1.789,1.789,0,0,1-.579.386,1.787,1.787,0,0,1-1.944-.386,1.783,1.783,0,0,1,1.261-3.045Z"/>
    <path id="Path_841" data-name="Path 841" d="M1401.82,4343.246a1.787,1.787,0,1,1-.682.136A1.763,1.763,0,0,1,1401.82,4343.246Z"/>
    <path id="Path_842" data-name="Path 842" d="M1408.272,4339.935a1.787,1.787,0,1,1-.683.136A1.758,1.758,0,0,1,1408.272,4339.935Z"/>
  </g>
</svg>
