<svg xmlns="http://www.w3.org/2000/svg" width="179.657" height="136.497" viewBox="0 0 179.657 136.497">
  <g id="Group_6578" data-name="Group 6578" transform="translate(-412.657 -4298.861)">
    <path id="Path_788" data-name="Path 788" d="M592.314,4381.016s-4.187-61.221-54.215-54.265-68.995-27.626-68.995-27.626-11.688-3.139-27.613,12.24-42.9,47.2-19.97,78.914,109.526,53.534,116.579,41.915a34.658,34.658,0,0,1,29.377-16.558C577.26,4415.807,592.314,4381.016,592.314,4381.016Z" fill="#eef4ff"/>
    <path id="Path_799" data-name="Path 799" d="M514.622,4350.933a2.137,2.137,0,0,0-1.637-.762H498a2.141,2.141,0,0,0,0,4.282h8.82l-35.835,28.288a2.141,2.141,0,1,0,2.652,3.361l36.276-28.638-1.447,8.308a2.14,2.14,0,1,0,4.217.734l2.408-13.824A2.131,2.131,0,0,0,514.622,4350.933Zm9.066,35.63H483.015a2.141,2.141,0,0,1,0-4.282h40.673a2.141,2.141,0,0,1,0,4.282Zm8.563,4.281h-68.5v-47.1h68.5ZM498,4420.813a2.14,2.14,0,1,1,2.141-2.141A2.144,2.144,0,0,1,498,4420.813Zm-42.813-85.626h85.626v4.281H455.187Zm87.767,8.562a2.142,2.142,0,0,0,2.141-2.141v-8.562a2.142,2.142,0,0,0-2.141-2.141H453.046a2.142,2.142,0,0,0-2.141,2.141v8.562a2.142,2.142,0,0,0,2.141,2.141h6.422v47.1h-6.422a2.14,2.14,0,1,0,0,4.281h42.813v17.52a6.422,6.422,0,1,0,4.282,0v-17.52h42.813a2.14,2.14,0,1,0,0-4.281h-6.422v-47.1Z"/>
  </g>
</svg>
