<svg xmlns="http://www.w3.org/2000/svg" width="47.689" height="42.123" viewBox="0 0 47.689 42.123"><defs><style>.a{fill:#1d2a38;}</style></defs><g transform="translate(-2.472 -8.1)"><path class="a" d="M35.695,24.7l3.514-1a6.505,6.505,0,0,0,2.259,1A6.786,6.786,0,0,0,49.8,18.522a.388.388,0,0,0-.351-.4H43.426a.343.343,0,0,1-.351-.351V11.744a.356.356,0,0,0-.4-.351A6.745,6.745,0,0,0,36.5,19.727a7.8,7.8,0,0,0,.4,1.155l-1.757,3.063A.518.518,0,0,0,35.695,24.7Z" transform="translate(-16.239 -1.635)"/><path class="a" d="M54.744,14.828h6.025a.356.356,0,0,0,.351-.4A6.684,6.684,0,0,0,54.794,8.1a.388.388,0,0,0-.4.351v6.025C54.342,14.677,54.543,14.828,54.744,14.828Z" transform="translate(-25.849)"/><circle class="a" cx="3.916" cy="3.916" r="3.916" transform="translate(6.252 14.627)"/><path class="a" d="M14.335,58.491H9.113A2.746,2.746,0,0,1,6.4,56.181L4.846,46.19a1.193,1.193,0,1,0-2.36.351l1.556,9.991a5.073,5.073,0,0,0,5.021,4.318h5.221a1.222,1.222,0,0,0,1.2-1.2A1.168,1.168,0,0,0,14.335,58.491Z" transform="translate(0 -18.46)"/><path class="a" d="M21.911,50.3H18.3l-.452-6.326a8.375,8.375,0,0,0,4.217,1.2h3.263a1.506,1.506,0,1,0,0-3.012H22.112A5.47,5.47,0,0,1,19.2,41.31L16.237,39.4a3.239,3.239,0,0,0-1.958-.6h-.552a3.558,3.558,0,0,0-2.711,1.255,3.508,3.508,0,0,0-.854,2.862l1.456,9.489a1.822,1.822,0,0,0,1.757,1.506h6.477a.6.6,0,0,1,.6.5L22.162,63.8a1.777,1.777,0,0,0,1.757,1.456.637.637,0,0,0,.3-.05,1.808,1.808,0,0,0,1.456-2.058l-2.058-11.4A1.652,1.652,0,0,0,21.911,50.3Z" transform="translate(-3.81 -15.287)"/><circle class="a" cx="3.916" cy="3.916" r="3.916" transform="translate(38.584 14.627)"/><path class="a" d="M83.549,45.186a1.191,1.191,0,0,0-1.356,1l-1.556,9.991a2.708,2.708,0,0,1-2.711,2.309H72.7a1.2,1.2,0,1,0,0,2.41h5.221a5.035,5.035,0,0,0,5.021-4.318L84.5,46.592A1.147,1.147,0,0,0,83.549,45.186Z" transform="translate(-34.372 -18.46)"/><path class="a" d="M69.905,53.812a1.782,1.782,0,0,0,1.757-1.506l1.456-9.489A3.633,3.633,0,0,0,69.554,38.7H69a3.75,3.75,0,0,0-1.958.6l-2.962,1.958a5.343,5.343,0,0,1-2.912.854H57.906a1.506,1.506,0,0,0,0,3.012H61.22a7.779,7.779,0,0,0,4.217-1.2l-.452,6.326H61.37A1.777,1.777,0,0,0,59.613,51.7L57.555,63.1a1.77,1.77,0,0,0,1.456,2.058c.1,0,.2.05.3.05a1.777,1.777,0,0,0,1.757-1.456l1.707-9.389a.6.6,0,0,1,.6-.5l6.527-.05Z" transform="translate(-26.853 -15.237)"/><path class="a" d="M50.082,55.5a1.222,1.222,0,0,0-1.2-1.2H31.4a1.2,1.2,0,1,0,0,2.41h7.581V72.023a1.2,1.2,0,1,0,2.41,0V56.66h7.581A1.159,1.159,0,0,0,50.082,55.5Z" transform="translate(-13.807 -23.005)"/></g></svg>