<svg xmlns="http://www.w3.org/2000/svg" width="31.76" height="31.769" viewBox="0 0 31.76 31.769"><defs><style>.a{fill:none;}.b{fill:#fff;}</style></defs><g transform="translate(-32.655 -23.656)"><path class="a" d="M53.66,39.56l.2-.2-.24-.24c-.02.07-.03.14-.05.21A.917.917,0,0,1,53.66,39.56Z"/><path class="a" d="M48.31,34.5a2.251,2.251,0,0,1,.24-.08l-.2-.2-.24.24A.647.647,0,0,1,48.31,34.5Z"/><path class="a" d="M48.52,44.67l.2.2.24-.24c-.07-.02-.14-.03-.2-.05Z"/><path class="a" d="M43.41,39.53l-.2.2.24.24c.02-.07.03-.14.05-.21C43.47,39.68,43.44,39.61,43.41,39.53Z"/><path class="a" d="M47.62,39.58a3.685,3.685,0,0,0,.32.37,3.414,3.414,0,0,0,.64.51,3.685,3.685,0,0,0,.37-.32,3.414,3.414,0,0,0,.51-.64,3.685,3.685,0,0,0-.32-.37,3.414,3.414,0,0,0-.64-.51,3.685,3.685,0,0,0-.37.32A3.414,3.414,0,0,0,47.62,39.58Z"/><path class="b" d="M37.52,34.05a3.769,3.769,0,0,1,5.33-5.33l2.67-2.67A7.538,7.538,0,0,0,34.86,36.71l3.02,3.02,2.67-2.67Z"/><path class="b" d="M43.45,39.97l-.24-.24L40.54,42.4l.41.41a7.487,7.487,0,0,0,2.94,1.81A7.522,7.522,0,0,1,43.45,39.97Z"/><path class="b" d="M48.58,40.46a3.711,3.711,0,0,0,1.58.56,3.759,3.759,0,0,0-.7-1.52,3.414,3.414,0,0,1-.51.64A3.686,3.686,0,0,1,48.58,40.46Z"/><path class="b" d="M48.55,34.41a7.582,7.582,0,0,1,4.64.05,7.59,7.59,0,0,0-1.58-2.32l-.6-.6-2.67,2.67Z"/><rect class="b" width="3.77" height="1.92" transform="translate(44.322 30.185) rotate(-45)"/><path class="b" d="M48.76,34.62l-.21-.21c-.08.02-.16.06-.24.08C48.46,34.54,48.61,34.57,48.76,34.62Z"/><path class="b" d="M43.45,39.97l.17.17.02.02c-.05-.13-.1-.26-.14-.4A1.6,1.6,0,0,0,43.45,39.97Z"/><path class="b" d="M53.63,39.11l.24.24,2.67-2.67-.41-.41a7.487,7.487,0,0,0-2.94-1.81A7.594,7.594,0,0,1,53.63,39.11Z"/><path class="b" d="M48.52,44.67a7.582,7.582,0,0,1-4.64-.05,7.473,7.473,0,0,0,1.58,2.32l.6.6,2.67-2.67Z"/><path class="b" d="M48.13,38.94a3.685,3.685,0,0,1,.37-.32,3.711,3.711,0,0,0-1.58-.56,3.759,3.759,0,0,0,.7,1.52A3.414,3.414,0,0,1,48.13,38.94Z"/><rect class="b" width="3.77" height="1.92" transform="translate(48.731 50.202) rotate(-45)"/><path class="b" d="M59.55,45.03a3.769,3.769,0,1,1-5.33,5.33l-2.67,2.67A7.538,7.538,0,0,0,62.21,42.37l-3.02-3.02-2.67,2.67Z"/><path class="b" d="M48.55,34.41l.21.21a7.374,7.374,0,0,1,3.04,1.85,7.523,7.523,0,0,1,1.64,2.46l.02.02.17.17a7.655,7.655,0,0,0-.44-4.65A7.656,7.656,0,0,0,48.55,34.41Z"/><path class="b" d="M48.52,44.67l-.21-.21a7.374,7.374,0,0,1-3.04-1.85,7.523,7.523,0,0,1-1.64-2.46l-.02-.02-.17-.17a7.655,7.655,0,0,0,.44,4.65A7.658,7.658,0,0,0,48.52,44.67Z"/><rect class="b" width="1.92" height="3.77" transform="translate(36.518 41.091) rotate(-45)"/><path class="b" d="M48.11,34.45l-.17.17-.02.02c.13-.05.26-.1.39-.14A1.17,1.17,0,0,0,48.11,34.45Z"/><path class="b" d="M53.46,39.76l.21-.21c-.02-.08-.06-.16-.08-.24C53.54,39.47,53.51,39.61,53.46,39.76Z"/><path class="b" d="M49.46,39.5a3.711,3.711,0,0,0,.56-1.58,3.759,3.759,0,0,0-1.52.7,3.414,3.414,0,0,1,.64.51C49.25,39.25,49.36,39.37,49.46,39.5Z"/><path class="b" d="M43.41,39.53a7.549,7.549,0,0,1,.05-4.63,7.473,7.473,0,0,0-2.32,1.58l-.6.6,2.67,2.67Z"/><path class="b" d="M48.97,44.63l-.24.24,2.67,2.67.41-.41a7.487,7.487,0,0,0,1.81-2.94A7.522,7.522,0,0,1,48.97,44.63Z"/><path class="b" d="M43.05,50.56a3.769,3.769,0,0,1-5.33-5.33l-2.67-2.67A7.538,7.538,0,0,0,45.71,53.22l3.02-3.02-2.67-2.67Z"/><rect class="b" width="3.77" height="3.77" transform="translate(37.881 39.732) rotate(-45)"/><path class="b" d="M50.02,37.92a3.849,3.849,0,0,1-.56,1.58,3.759,3.759,0,0,1,.7,1.52,3.754,3.754,0,0,0,3.11-1.07l.19-.19a3.6,3.6,0,0,0,.12-.44c-.05-.13-.09-.27-.14-.4A3.781,3.781,0,0,0,50.02,37.92Z"/><rect class="b" width="3.77" height="3.77" transform="translate(46.058 47.537) rotate(-45)"/><path class="b" d="M47.92,34.64a3.755,3.755,0,0,0-1,3.42,3.849,3.849,0,0,1,1.58.56,3.759,3.759,0,0,1,1.52-.7,3.754,3.754,0,0,0-1.07-3.11l-.19-.19a4.161,4.161,0,0,0-.44-.12C48.18,34.54,48.05,34.59,47.92,34.64Z"/><path class="b" d="M50.02,37.92a3.755,3.755,0,0,1,3.42,1,7.531,7.531,0,0,0-4.68-4.31l.19.19A3.785,3.785,0,0,1,50.02,37.92Z"/><rect class="b" width="1.92" height="3.77" transform="translate(56.535 36.679) rotate(-45)"/><path class="b" d="M47.62,39.58a3.711,3.711,0,0,0-.56,1.58,3.759,3.759,0,0,0,1.52-.7,3.414,3.414,0,0,1-.64-.51A3.686,3.686,0,0,1,47.62,39.58Z"/><path class="b" d="M53.66,39.56a7.549,7.549,0,0,1-.05,4.63,7.473,7.473,0,0,0,2.32-1.58l.6-.6-2.67-2.67Z"/><path class="b" d="M48.97,44.63l.17-.17.02-.02c-.13.05-.26.1-.39.14A1.17,1.17,0,0,0,48.97,44.63Z"/><path class="b" d="M48.11,34.45l.24-.24-2.67-2.67-.41.41a7.487,7.487,0,0,0-1.81,2.94A7.581,7.581,0,0,1,48.11,34.45Z"/><path class="b" d="M51.37,25.86l-3.02,3.02,2.67,2.67,3.02-3.02a3.769,3.769,0,1,1,5.33,5.33l2.67,2.67A7.545,7.545,0,0,0,51.37,25.86Z"/><path class="b" d="M50.16,41.02a3.849,3.849,0,0,1-1.58-.56,3.759,3.759,0,0,1-1.52.7,3.754,3.754,0,0,0,1.07,3.11l.19.19a4.161,4.161,0,0,0,.44.12c.13-.05.26-.09.39-.14A3.761,3.761,0,0,0,50.16,41.02Z"/><rect class="b" width="3.77" height="3.77" transform="translate(45.68 31.546) rotate(-45)"/><rect class="b" width="3.77" height="3.77" transform="translate(53.872 39.354) rotate(-45)"/><path class="b" d="M47.06,41.16a3.849,3.849,0,0,1,.56-1.58,3.759,3.759,0,0,1-.7-1.52,3.754,3.754,0,0,0-3.11,1.07l-.19.19a3.6,3.6,0,0,0-.12.44c.05.13.09.27.14.4A3.755,3.755,0,0,0,47.06,41.16Z"/><path class="b" d="M47.06,41.16a3.755,3.755,0,0,1-3.42-1,7.531,7.531,0,0,0,4.68,4.31l-.19-.19A3.785,3.785,0,0,1,47.06,41.16Z"/><path class="b" d="M53.66,39.56l-.21.21a7.374,7.374,0,0,1-1.85,3.04,7.523,7.523,0,0,1-2.46,1.64l-.02.02-.17.17a7.655,7.655,0,0,0,4.65-.44A7.509,7.509,0,0,0,53.66,39.56Z"/><path class="b" d="M43.41,39.53l.21-.21a7.374,7.374,0,0,1,1.85-3.04,7.523,7.523,0,0,1,2.46-1.64l.02-.02.17-.17a7.655,7.655,0,0,0-4.65.44A7.508,7.508,0,0,0,43.41,39.53Z"/><path class="b" d="M50.16,41.02a3.755,3.755,0,0,1-1,3.42,7.531,7.531,0,0,0,4.31-4.68l-.19.19A3.785,3.785,0,0,1,50.16,41.02Z"/><path class="b" d="M46.92,38.06a3.755,3.755,0,0,1,1-3.42,7.531,7.531,0,0,0-4.31,4.68l.19-.19A3.785,3.785,0,0,1,46.92,38.06Z"/></g></svg>