<svg xmlns="http://www.w3.org/2000/svg" xmlns:xlink="http://www.w3.org/1999/xlink" width="51.779" height="46.764" viewBox="0 0 51.779 46.764"><defs><style>.a{fill:url(#a);}</style><linearGradient id="a" x1="0.5" x2="0.5" y2="1" gradientUnits="objectBoundingBox"><stop offset="0" stop-color="#ffb613"/><stop offset="0.548" stop-color="#fc6a0b"/><stop offset="1" stop-color="#f60"/></linearGradient></defs><g transform="translate(-2.5 -7.1)"><g transform="translate(2.5 7.1)"><path class="a" d="M42.012,35.99a10.163,10.163,0,0,0-10.574,8.939A9.945,9.945,0,0,0,33.564,52.4c1.2,1.526,2.616,3.052,3.052,4.578l.164.6a.694.694,0,0,0,.6.491h8.23a.639.639,0,0,0,.6-.491l.164-.6c.436-1.472,1.8-2.943,2.943-4.415a10.242,10.242,0,0,0,1.962-3.924A10.084,10.084,0,0,0,42.012,35.99Zm-.981,9.974h.981a3.454,3.454,0,0,1,3.434,3.815,3.585,3.585,0,0,1-2.889,3.052v1.363a.257.257,0,0,1-.273.273H40.7a.257.257,0,0,1-.273-.273V52.831a3.53,3.53,0,0,1-2.889-3.107.305.305,0,0,1,.273-.327H39.4c.109,0,.273.109.273.218a1.345,1.345,0,0,0,1.308,1.09H41.9a1.352,1.352,0,0,0,1.363-1.09,1.338,1.338,0,0,0-1.308-1.581H41.14a3.458,3.458,0,0,1-.709-6.867V39.8a.257.257,0,0,1,.273-.273h1.581a.257.257,0,0,1,.273.273v1.363a3.53,3.53,0,0,1,2.889,3.107.305.305,0,0,1-.273.327H43.592c-.109,0-.273-.109-.273-.218a1.343,1.343,0,0,0-1.308-1.145h-.927a1.412,1.412,0,0,0-1.417,1.09A1.43,1.43,0,0,0,41.031,45.964Z" transform="translate(-15.632 -20.238)"/><path class="a" d="M50.348,80.7H41.736a.469.469,0,0,0-.436.436v3a.469.469,0,0,0,.436.436h1.036a3.314,3.314,0,0,0,6.54,0h1.036a.469.469,0,0,0,.436-.436v-3A.469.469,0,0,0,50.348,80.7Z" transform="translate(-20.153 -40.585)"/><path class="a" d="M45.98,13.64V18.6a1.2,1.2,0,0,0,2.4,0V13.64a3.379,3.379,0,1,0-2.4,0Z" transform="translate(-21.29 -7.1)"/><path class="a" d="M19.342,25.631,22.83,29.12a1.238,1.238,0,0,0,.872.327,1.336,1.336,0,0,0,.872-.327,1.154,1.154,0,0,0,0-1.69l-3.488-3.488a3.345,3.345,0,0,0-.709-3.761,3.392,3.392,0,0,0-4.8,4.8A3.269,3.269,0,0,0,19.342,25.631Z" transform="translate(-8.005 -12.605)"/><path class="a" d="M14,52.978a1.2,1.2,0,1,0,0-2.4H9.04a3.379,3.379,0,1,0,0,2.4Z" transform="translate(-2.5 -25.89)"/><path class="a" d="M22.93,71.43l-3.488,3.488a3.345,3.345,0,0,0-3.761.709,3.392,3.392,0,0,0,4.8,4.8,3.361,3.361,0,0,0,.709-3.761l3.488-3.488a1.154,1.154,0,0,0,0-1.69A1.27,1.27,0,0,0,22.93,71.43Z" transform="translate(-8.051 -36.221)"/><path class="a" d="M72.071,74.881l-3.488-3.488a1.195,1.195,0,0,0-1.69,1.69l3.488,3.488a3.345,3.345,0,0,0,.709,3.761,3.392,3.392,0,0,0,4.8-4.8A3.564,3.564,0,0,0,72.071,74.881Z" transform="translate(-31.629 -36.183)"/><path class="a" d="M83.52,48.4a3.391,3.391,0,0,0-3.161,2.18H75.4a1.2,1.2,0,0,0,0,2.4h4.96A3.38,3.38,0,1,0,83.52,48.4Z" transform="translate(-35.121 -25.89)"/><path class="a" d="M67.665,29.5a1.336,1.336,0,0,0,.872-.327l3.488-3.488a3.345,3.345,0,0,0,3.761-.709,3.392,3.392,0,1,0-4.8-4.8,3.362,3.362,0,0,0-.709,3.761L66.793,27.43a1.154,1.154,0,0,0,0,1.69A1.084,1.084,0,0,0,67.665,29.5Z" transform="translate(-31.583 -12.605)"/></g></g></svg>