<svg xmlns="http://www.w3.org/2000/svg" width="40.709" height="40.71" viewBox="0 0 40.709 40.71"><defs><style>.a{fill:#1d2a38;}</style></defs><g transform="translate(-3 -2.999)"><g transform="translate(3 2.999)"><path class="a" d="M31.286,10.309c.015-.1.038-.206.057-.309H27v1.4h4.22A7.878,7.878,0,0,1,31.286,10.309Z" transform="translate(-10.155 -5.086)"/><path class="a" d="M21.232,25.223l9.727-6.733c-.095-.155-.182-.314-.288-.463a7.816,7.816,0,0,1-.454-.731l-9.782,6.772A7.767,7.767,0,0,1,21.232,25.223Z" transform="translate(-8.198 -7.261)"/><path class="a" d="M35.514,29.008l-6.547,10.4a7.038,7.038,0,0,1,1.227.687l6.315-10.03A4.968,4.968,0,0,1,35.514,29.008Z" transform="translate(-10.741 -10.753)"/><path class="a" d="M23.571,57a4.216,4.216,0,0,0-3.363,1.678,5.573,5.573,0,0,0,6.727,0A4.216,4.216,0,0,0,23.571,57Z" transform="translate(-8.13 -19.097)"/><path class="a" d="M22.615,45a5.609,5.609,0,0,0-4.374,9.127,5.612,5.612,0,0,1,2.057-1.6,3.509,3.509,0,1,1,4.634,0,5.62,5.62,0,0,1,2.057,1.6A5.609,5.609,0,0,0,22.615,45Z" transform="translate(-7.174 -15.52)"/><circle class="a" cx="2" cy="2" r="2" transform="translate(13.355 32.355)"/><path class="a" d="M15.634,31.317a6.317,6.317,0,1,0-6.317,6.317A6.324,6.324,0,0,0,15.634,31.317Zm-6.41,5.261-1.218-.7,2.207-3.863H6l3.408-5.963,1.218.7L8.421,30.615h4.211Z" transform="translate(-3 -9.558)"/><path class="a" d="M10,10.276c.053.148.113.292.179.433l.123.261-.333.936,1.359,1.36.936-.333.261.123c.141.066.285.126.433.179l.273.1.427.9h1.92l.427-.9.273-.1c.148-.053.292-.113.433-.179l.261-.123.936.333,1.359-1.36-.333-.936.123-.261c.066-.141.126-.285.179-.433l.1-.273.9-.427V7.655l-.9-.427-.1-.273c-.053-.148-.113-.292-.179-.433l-.123-.261.333-.936L17.906,3.965,16.97,4.3l-.261-.123c-.141-.066-.285-.126-.433-.179L16,3.9,15.575,3h-1.92l-.427.9-.273.1c-.148.053-.292.113-.433.179L12.26,4.3l-.936-.333L9.965,5.324l.333.936-.123.261c-.066.141-.126.285-.179.433l-.1.273L9,7.655v1.92L9.9,10Zm4.618-5.17a3.509,3.509,0,1,1-3.509,3.509A3.513,3.513,0,0,1,14.615,5.106Z" transform="translate(-4.789 -2.999)"/><ellipse class="a" cx="2.5" cy="2" rx="2.5" ry="2" transform="translate(7.355 3.355)"/><path class="a" d="M39.805,9h-.1a.7.7,0,1,0,0,1.4h.862l-.058-.755A.706.706,0,0,0,39.805,9Z" transform="translate(-13.732 -4.788)"/><path class="a" d="M53.144,35.826a.7.7,0,0,0-.7.7v1.4h-1.4V35.125a.7.7,0,1,0-1.4,0v2.808h-1.4V35.125a.7.7,0,0,0-1.4,0v2.808h-1.4V26.7a.7.7,0,0,0-1.4,0V40.048a3.537,3.537,0,0,1-.37,1.569l-.6,1.2H41.339l-.9-4.511a3.13,3.13,0,0,0-3.06-2.508.376.376,0,0,0-.312.584l.722,1.084a4.534,4.534,0,0,1,.724,1.948L39,43.3a3.466,3.466,0,0,0,.435,1.3l2.482,5.1v.863H51.74V49.63l1.4-1.872a3.529,3.529,0,0,0,.7-2.106V36.528A.7.7,0,0,0,53.144,35.826Z" transform="translate(-13.136 -9.856)"/><path class="a" d="M48.336,9.7a.7.7,0,0,0-.7-.7h-.1a.7.7,0,0,0-.7.648l-.059.756h.862A.7.7,0,0,0,48.336,9.7Z" transform="translate(-16.049 -4.788)"/><path class="a" d="M37.231,14.932h2.626l-.378-4.913H38.51a2.106,2.106,0,0,1,0-4.211h.1a2.115,2.115,0,0,1,2.1,1.945l.067.863h1.076l.067-.863a2.116,2.116,0,0,1,2.1-1.944h.1a2.106,2.106,0,1,1,0,4.211h-.969l-.378,4.913h2.606A8.888,8.888,0,0,1,46.444,13a6.244,6.244,0,0,0,1.19-3.681,6.317,6.317,0,1,0-11.475,3.636A9.366,9.366,0,0,1,37.231,14.932Z" transform="translate(-12.54 -2.999)"/><path class="a" d="M46.826,22.7a.7.7,0,0,0-.7-.7H37.7a.7.7,0,1,0,0,1.4h8.423A.7.7,0,0,0,46.826,22.7Z" transform="translate(-13.136 -8.663)"/><path class="a" d="M42.54,28.808a3.5,3.5,0,0,0,.7-.078V26.7a2.082,2.082,0,0,1,.129-.7H39.1A3.516,3.516,0,0,0,42.54,28.808Z" transform="translate(-13.762 -9.856)"/><path class="a" d="M44.247,13h-.859l.378,4.913h.1Z" transform="translate(-15.04 -5.98)"/></g></g></svg>