<svg xmlns="http://www.w3.org/2000/svg" width="149.178" height="153.782" viewBox="0 0 149.178 153.782">
  <g id="Group_6580" data-name="Group 6580" transform="translate(-416.886 -4834.755)">
    <path id="Path_798" data-name="Path 798" d="M457.674,4847.49s-70.38,45.585-26.24,70.137,38.476,63.585,38.476,63.585,7.445,9.542,29.419,6.844S562,4976.178,562.77,4937.05s8.916-74.981-3.709-69.945-30.456-3.928-32.382-25.3-33.925,13.227-41.635,7.2S457.674,4847.49,457.674,4847.49Z" fill="#eef4ff"/>
    <path id="Path_800" data-name="Path 800" d="M527.516,4904.243a2.31,2.31,0,1,0,0,4.62h12.217a4.517,4.517,0,0,1,0,9.034H526.977a2.31,2.31,0,0,0,0,4.62h11.407a4.427,4.427,0,1,1,0,8.854H526.977a2.31,2.31,0,1,0,0,4.619h9.544a10.1,10.1,0,0,1-10.088,9.932H489.847l-5.745-5.747a2.307,2.307,0,0,0-1.633-.677h-1.626v-30.635h1.222a2.325,2.325,0,0,0,.93-.194c.642-.282,15.794-7.094,19.985-22.715a2.282,2.282,0,0,0,.079-.6v-14.714a9.472,9.472,0,0,1,6.605-1.29,8.715,8.715,0,0,1,5.342,5.31c4.933,10.48-1.57,17.024-1.841,17.287a2.311,2.311,0,0,0,1.6,3.98h25.329a4.157,4.157,0,1,1,0,8.314Zm-51.293,40h-24.6v-40.172h24.6Zm72.646-44.158a8.785,8.785,0,0,0-8.778-8.777H519.246a20.5,20.5,0,0,0-.058-18.614,13.028,13.028,0,0,0-8.428-7.832,15.052,15.052,0,0,0-11.391,2.653,2.311,2.311,0,0,0-.929,1.851v15.678c-3.355,11.93-14.6,18.059-16.9,19.2h-.7v-2.481a2.309,2.309,0,0,0-2.31-2.31H449.31a2.308,2.308,0,0,0-2.31,2.31v44.792a2.308,2.308,0,0,0,2.31,2.31h29.223a2.309,2.309,0,0,0,2.31-2.31v-2.436h.67l5.745,5.747a2.311,2.311,0,0,0,1.633.677h37.542a14.728,14.728,0,0,0,14.71-14.712v-.315a8.967,8.967,0,0,0,3.858-14.7,9.062,9.062,0,0,0,.858-14.17,8.717,8.717,0,0,0,3.009-6.563Z"/>
  </g>
</svg>
