<svg xmlns="http://www.w3.org/2000/svg" width="148.217" height="154.781" viewBox="0 0 148.217 154.781">
  <g id="Group_6581" data-name="Group 6581" transform="translate(-878.787 -5108.513)">
    <path id="Path_776" data-name="Path 776" d="M976.846,5116.017s-79.251-27.4-71.424,22.5-26.417,69.467-26.417,69.467-2.935,11.741,12.719,27.4,47.942,42.071,79.251,18.59,64.575-39.137,52.834-45.985-15.654-26.418,0-41.093S992.5,5148.3,992.5,5138.52,976.846,5116.017,976.846,5116.017Z" fill="#eef4ff"/>
    <path id="Path_777" data-name="Path 777" d="M963.4,5179.734l-14.375,16.284-6.811-6.027a2.05,2.05,0,1,0-2.718,3.071l8.348,7.385a2.058,2.058,0,0,0,1.359.514l.126,0a2.066,2.066,0,0,0,1.411-.689l15.734-17.821a2.05,2.05,0,0,0-3.074-2.714Z"/>
    <path id="Path_778" data-name="Path 778" d="M952.9,5211.021A21.02,21.02,0,1,1,973.914,5190,21.043,21.043,0,0,1,952.9,5211.021Zm0-46.138A25.119,25.119,0,1,0,978.013,5190,25.147,25.147,0,0,0,952.9,5164.883Z"/>
    <path id="Path_779" data-name="Path 779" d="M988.563,5206.543c-5.282,13.456-13.618,22.531-25.483,27.738a44.683,44.683,0,0,1-8.962,2.742,10.508,10.508,0,0,1-4.712-.486c-12.961-3.312-22.536-11.028-29.269-23.589-4.341-8.1-6.891-17.3-8.024-28.969a141.779,141.779,0,0,1,.121-26.487q20.1-7.225,40.167-14.537a1.2,1.2,0,0,1,.982.024c13.338,4.85,26.682,9.683,40.183,14.545.379,4.745.605,9.441.677,13.954C994.147,5185.964,992.394,5196.78,988.563,5206.543Zm9.779-35.107c-.072-4.64-.306-9.465-.7-14.345a3.668,3.668,0,0,0-2.632-3.414q-20.132-7.23-40.231-14.551A5.261,5.261,0,0,0,951,5139.1q-20.1,7.317-40.226,14.557a3.667,3.667,0,0,0-2.62,3.381,146.079,146.079,0,0,0-.116,27.333c1.187,12.223,3.885,21.918,8.49,30.51,7.206,13.44,17.927,22.062,31.87,25.623a18.118,18.118,0,0,0,4.551.73,9.856,9.856,0,0,0,2.005-.2,48.846,48.846,0,0,0,9.777-3c12.908-5.668,21.952-15.479,27.651-30,4.026-10.258,5.866-21.534,5.964-36.559v-.046Z"/>
  </g>
</svg>
