<svg xmlns="http://www.w3.org/2000/svg" width="148.217" height="154.781" viewBox="0 0 148.217 154.781">
  <g id="Group_6579" data-name="Group 6579" transform="translate(-878.787 -4567)">
    <path id="Path_761" data-name="Path 761" d="M976.846,4574.5s-79.251-27.4-71.424,22.5-26.417,69.467-26.417,69.467-2.935,11.741,12.719,27.4,47.942,42.071,79.251,18.589,64.575-39.136,52.834-45.984-15.654-26.418,0-41.094-31.309-18.589-31.309-28.373S976.846,4574.5,976.846,4574.5Z" fill="#eef4ff"/>
    <path id="Path_801" data-name="Path 801" d="M1000.03,4679.876a7.92,7.92,0,1,1,0-15.841,7.92,7.92,0,1,1,0,15.841Zm17.142-5.869a2.085,2.085,0,0,0,0-4.107c-11.867-2.084-12.994-3.222-15.089-15.088a2.084,2.084,0,0,0-4.1,0c-2.1,11.866-3.225,12.994-15.089,15.088a2.085,2.085,0,0,0,0,4.107c11.864,2.1,12.992,3.222,15.089,15.086a2.084,2.084,0,0,0,4.1,0C1004.178,4677.229,1005.3,4676.1,1017.172,4674.007Z"/>
    <path id="Path_802" data-name="Path 802" d="M911.7,4686.811l7.842,7.189,6.966,6.386.448.417-8.525,7.821-15.258-13.99Zm7.3-3.885a19.664,19.664,0,0,1,15.8-4.736,2.041,2.041,0,0,0,.882-.069l6.772-2.038a1.549,1.549,0,0,1,1.447.3.877.877,0,0,1,.321.746.927.927,0,0,1-.482.692l-5.088,3.1-8.494,2.555a2.085,2.085,0,0,0,.086,4.017,39.437,39.437,0,0,0,31.236-4.978l4-2.611a2.375,2.375,0,0,1,2.829.227,1.537,1.537,0,0,1-.15,2.489l-7.492,5.327a49.74,49.74,0,0,1-31.876,8.871l-12.475-11.439ZM898,4694.634a2.086,2.086,0,0,0,.675,1.536l18.343,16.818a2.082,2.082,0,0,0,2.818,0l11.616-10.653a2.037,2.037,0,0,0,.625-1.251,53.626,53.626,0,0,0,31.012-9.74l7.478-5.321a5.7,5.7,0,0,0,.555-8.963,6.567,6.567,0,0,0-7.921-.646l-4,2.612a34.641,34.641,0,0,1-18.551,5.553l5.249-3.194a5,5,0,0,0,.811-8.071,5.681,5.681,0,0,0-5.464-1.225L934.9,4674a23.784,23.784,0,0,0-18.719,5.854l-2.948,2.709-.121-.11a2.083,2.083,0,0,0-2.818,0L898.675,4693.1A2.087,2.087,0,0,0,898,4694.634Z"/>
    <path id="Path_803" data-name="Path 803" d="M907.674,4625.17a14.02,14.02,0,0,1,17.717-6.345l5.855,2.48a2.085,2.085,0,0,0,2.668-.971l2.874-5.628a13.965,13.965,0,0,1,14.664-7.232l.12.016a13.2,13.2,0,0,1,2.935.848,11.608,11.608,0,0,1,6.9,7.977l-6.567-.535a7.113,7.113,0,0,0-7.46,5.231,8.083,8.083,0,0,0,.852,6.337,7.859,7.859,0,0,0,5,3.674l3.424.757-11.649,22.8-31.416-13.33a11.755,11.755,0,0,1-6.578-6.794,11.564,11.564,0,0,1,.659-9.286Zm52.967-20.729,9.77,4.518a2.081,2.081,0,0,0,1.582.069l15.426-5.546,7.052,19.176-15.887,9.716-24.456-5.42a3.677,3.677,0,0,1-2.32-1.734,3.91,3.91,0,0,1-.427-3.056,2.973,2.973,0,0,1,3.105-2.239l16.427,1.368.346-4.156-5.54-.461a15.533,15.533,0,0,0-7.785-11.256Zm49.26-11.22,8.4,22.834-19.259,6.928-8.4-22.836Zm-106.8,42.658a15.885,15.885,0,0,0,8.869,9.209l33.2,14.088a2.026,2.026,0,0,0,.815.167,2.083,2.083,0,0,0,1.855-1.136l13.032-25.494,17.64,3.911a2.042,2.042,0,0,0,.45.049,2.1,2.1,0,0,0,1.086-.306l15.935-9.749a2.066,2.066,0,0,0,1.815,1.113,2.1,2.1,0,0,0,.707-.123l23.182-8.337a2.086,2.086,0,0,0,1.251-2.681l-9.836-26.75a2.085,2.085,0,0,0-2.664-1.251l-23.182,8.338a2.067,2.067,0,0,0-1.251,2.624l-14.616,5.265-9.771-4.519a2.068,2.068,0,0,0-1.584-.067l-8.463,3.06a18.133,18.133,0,0,0-18.482,9.52l-1.992,3.9-4.067-1.721a18.258,18.258,0,0,0-23.068,8.3,15.7,15.7,0,0,0-.863,12.6Z"/>
  </g>
</svg>
