<svg xmlns="http://www.w3.org/2000/svg" width="18.194" height="18.113" viewBox="0 0 18.194 18.113">
  <g id="Group_6545" data-name="Group 6545" transform="translate(7.599 -2.39)">
    <path id="Path_19" data-name="Path 19" d="M6.981,0H1.321A1.322,1.322,0,0,0,0,1.321v3.4A1.322,1.322,0,0,0,1.321,6.038h5.66A1.322,1.322,0,0,0,8.3,4.717v-3.4A1.322,1.322,0,0,0,6.981,0Zm0,0" transform="translate(-7.599 2.39)" fill="#fff" opacity="0.5"/>
    <path id="Path_20" data-name="Path 20" d="M6.981,213.332H1.321A1.322,1.322,0,0,0,0,214.653v7.925A1.322,1.322,0,0,0,1.321,223.9h5.66A1.322,1.322,0,0,0,8.3,222.577v-7.925A1.322,1.322,0,0,0,6.981,213.332Zm0,0" transform="translate(-7.518 -203.395)" fill="#fff"/>
    <path id="Path_21" data-name="Path 21" d="M284.313,341.332h-5.66a1.322,1.322,0,0,0-1.321,1.321v3.4a1.322,1.322,0,0,0,1.321,1.321h5.66a1.322,1.322,0,0,0,1.321-1.321v-3.4A1.322,1.322,0,0,0,284.313,341.332Zm0,0" transform="translate(-275.039 -326.866)" fill="#fff" opacity="0.5"/>
    <path id="Path_22" data-name="Path 22" d="M284.313,0h-5.66a1.322,1.322,0,0,0-1.321,1.321V9.245a1.322,1.322,0,0,0,1.321,1.321h5.66a1.322,1.322,0,0,0,1.321-1.321V1.321A1.322,1.322,0,0,0,284.313,0Zm0,0" transform="translate(-275.039 2.39)" fill="#fff"/>
  </g>
</svg>
